<svg viewBox="0 0 39.608 39.608" xmlns="http://www.w3.org/2000/svg">
  <defs>
    <path id="prefix__a" d="M263.783 405.248h20.346v23.219h-20.346z" />
    <path id="prefix__d" d="M263.783 405.248h20.346v23.219h-20.346z" />
    <path id="prefix__c" d="M263.783 405.248h20.346v23.219h-20.346z" />
    <path id="prefix__b" d="M263.783 405.248h20.346v23.219h-20.346z" />
  </defs>
  <g fill="#c4e2ff">
    <path
      d="M39.608 19.303l-.027 1.077-3.038-.075.026-1.077zM39.55 21.065l-.08 1.074-3.03-.225.08-1.074zM39.35 22.892l-.185 1.06-2.994-.522.185-1.06zM38.981 24.69l-.288 1.038-2.929-.812.288-1.038zM38.449 26.448l-.388 1.004-2.836-1.094.388-1.005zM37.755 28.148l-.484.962-2.715-1.365.483-.962zM36.907 29.778l-.575.91-2.57-1.623.576-.91zM35.912 31.323l-.662.85-2.398-1.869.662-.85zM34.778 32.771l-.743.78-2.202-2.095.743-.78zM33.55 34.036l-.78.743-2.096-2.202.78-.743zM32.17 35.251l-.849.662-1.868-2.398.85-.662zM30.687 36.333l-.91.575-1.625-2.57.91-.575zM29.109 37.272l-.963.483-1.365-2.715.962-.484zM27.451 38.061l-1.005.388-1.094-2.836 1.005-.388zM25.727 38.694l-1.038.288-.813-2.93 1.038-.287zM23.95 39.165l-1.06.185-.523-2.994 1.061-.185zM22.138 39.47l-1.074.08-.226-3.03 1.074-.08zM20.302 39.608l-1.076-.026.075-3.04 1.077.027zM18.54 39.55l-1.074-.08.226-3.031 1.074.08zM16.714 39.35l-1.06-.185.522-2.994 1.06.185zM14.915 38.98l-1.037-.287.813-2.93 1.037.289zM13.159 38.447l-1.005-.387 1.094-2.836 1.005.388zM11.458 37.754l-.962-.484 1.366-2.715.962.483zM9.829 36.906l-.91-.576 1.623-2.57.91.576zM8.284 35.91l-.85-.661 1.868-2.398.85.662zM6.836 34.776l-.78-.742 2.095-2.202.78.742zM5.57 33.548l-.742-.78 2.202-2.095.742.78zM4.356 32.17l-.662-.85 2.398-1.868.662.85zM3.274 30.685l-.575-.91 2.57-1.625.575.91zM2.335 29.107l-.484-.962 2.716-1.366.484.962zM1.546 27.448l-.388-1.004 2.836-1.095.388 1.005zM.913 25.725l-.288-1.038 2.93-.812.287 1.037zM.442 23.949l-.185-1.06 2.995-.523.185 1.06zM.137 22.135l-.08-1.074 3.031-.225.08 1.074zM0 20.3l.027-1.077 3.039.077-.028 1.077zM.057 18.536l.082-1.074 3.03.23-.081 1.074zM.256 16.706l.189-1.06 2.992.534-.19 1.06zM.623 14.903l.294-1.035 2.924.83-.294 1.036zM1.156 13.144l.395-1.002 2.828 1.115-.395 1.002zM1.851 11.444l.491-.959 2.706 1.386-.491.958zM2.701 9.816l.582-.906 2.559 1.64-.582.907zM3.698 8.275l.665-.847 2.39 1.879-.665.846zM4.832 6.834l.743-.78 2.2 2.098-.743.78zM6.059 5.571l.78-.743 2.097 2.2-.78.743zM7.434 4.36l.846-.666 1.879 2.39-.847.666zM8.915 3.28l.906-.582 1.64 2.56-.906.58zM10.49 2.34l.959-.491 1.386 2.705-.959.491zM12.148 1.55l1.002-.396 1.114 2.828-1.001.395zM13.873.915L14.91.621l.83 2.924-1.036.294zM15.652.444l1.06-.19.534 2.993-1.06.19zM17.468.138l1.074-.082.23 3.031-1.073.082zM19.306 0l1.077.027-.077 3.039-1.077-.028zM21.07.057l1.074.081-.23 3.031-1.074-.081zM22.9.255l1.06.19-.534 2.992-1.06-.19zM24.703.622l1.036.294-.83 2.924-1.036-.294zM26.462 1.156l1.002.395-1.115 2.827-1.002-.395zM28.163 1.85l.958.491-1.385 2.706-.959-.49zM29.79 2.7l.907.581-1.64 2.56-.907-.582zM31.33 3.697l.848.665-1.879 2.39-.846-.665zM32.773 4.83l.78.744-2.098 2.2-.78-.743zM34.035 6.057l.743.78-2.2 2.097-.743-.78zM35.248 7.432l.665.847-2.39 1.878-.665-.847zM36.327 8.913l.582.907-2.56 1.64-.58-.906zM37.267 10.489l.491.958-2.705 1.386-.491-.959zM38.058 12.146l.395 1.002-2.828 1.115-.395-1.002zM38.692 13.871l.295 1.036-2.924.83-.295-1.035zM39.164 15.65l.19 1.06-2.993.534-.189-1.06zM39.47 17.466l.081 1.074-3.03.23-.083-1.073z" />
    <path d="M39.581 19.227l.027 1.077-3.038.077-.028-1.077z" /><text
      transform="matrix(.26458 0 0 .26458 -37.665 -90.06)" font-size="18.667">
      <tspan x="263.783" y="422.278">
        <tspan fill="#000">E</tspan>
      </tspan>
    </text><text transform="matrix(.26458 0 0 .26458 -51.104 -75.905)" x="4.471" font-size="18.667">
      <tspan x="267.576" y="422.278">
        <tspan style="text-align:center" text-anchor="middle" fill="#000">S</tspan>
      </tspan>
    </text><text transform="matrix(.26458 0 0 .26458 -51.351 -104.216)" x="5.177" font-size="18.667">
      <tspan x="266.974" y="422.278">
        <tspan style="text-align:center" text-anchor="middle" fill="#000">N</tspan>
      </tspan>
    </text><text transform="matrix(.26458 0 0 .26458 -65.831 -90.06)" font-size="18.667">
      <tspan x="263.783" y="422.278">
        <tspan fill="#000">W</tspan>
      </tspan>
    </text>
  </g>
</svg>